<svg xmlns="http://www.w3.org/2000/svg" xmlns:xlink="http://www.w3.org/1999/xlink" viewBox="0,0,256,256" width="48px" height="48px" fill-rule="nonzero"><g fill="#662626" fill-rule="nonzero" stroke="none" stroke-width="1" stroke-linecap="butt" stroke-linejoin="miter" stroke-miterlimit="10" stroke-dasharray="" stroke-dashoffset="0" font-family="none" font-weight="none" font-size="none" text-anchor="none" style="mix-blend-mode: normal"><g transform="scale(5.33333,5.33333)"><path d="M24,4c-11.046,0 -20,8.954 -20,20c0,11.046 8.954,20 20,20c11.046,0 20,-8.954 20,-20c0,-11.046 -8.954,-20 -20,-20zM17.279,36.159l7.126,-10.265c0.115,-0.167 -0.004,-0.394 -0.205,-0.394h-9.34c-0.224,0 -0.335,-0.271 -0.175,-0.428l14.2,-13.974c0.053,-0.052 0.114,-0.074 0.173,-0.074c0.168,0 0.321,0.18 0.225,0.367l-5.03,9.745c-0.086,0.166 0.035,0.365 0.222,0.365h8.882c0.228,0 0.337,0.28 0.169,0.434l-15.873,14.55c-0.052,0.048 -0.111,0.069 -0.167,0.069c-0.179,0 -0.337,-0.209 -0.207,-0.395z"></path></g></g></svg>